<svg width="264" height="264" viewBox="0 0 264 264" fill="none" xmlns="http://www.w3.org/2000/svg">
<path d="M264 132C264 204.902 204.902 264 132 264C59.0984 264 0 204.902 0 132C0 59.0984 59.0984 0 132 0C204.902 0 264 59.0984 264 132Z" fill="black"/>
<path fill-rule="evenodd" clip-rule="evenodd" d="M132 254C199.379 254 254 199.379 254 132C254 64.6213 199.379 10 132 10C64.6213 10 10 64.6213 10 132C10 199.379 64.6213 254 132 254ZM132 264C204.902 264 264 204.902 264 132C264 59.0984 204.902 0 132 0C59.0984 0 0 59.0984 0 132C0 204.902 59.0984 264 132 264Z" fill="white"/>
<path d="M110.334 207C112.149 207 113.51 206.551 114.418 205.653C115.325 204.605 116.006 202.883 116.46 200.488L117.821 196.222V195.772V195.099C117.821 190.159 123.039 173.317 133.475 144.575C143.759 115.832 151.851 94.5749 157.749 80.8024V193.752L156.842 195.323C156.691 195.623 156.388 196.147 155.934 196.895C155.481 197.644 155.254 198.392 155.254 199.141C155.254 201.087 155.934 202.734 157.296 204.081C158.657 205.428 160.32 206.102 162.287 206.102C167.126 206.102 169.546 201.536 169.546 192.404L169.773 154.006C169.924 142.479 170 129.605 170 115.383C170 110.593 169.773 103.632 169.319 94.5C168.866 85.0689 168.639 78.1078 168.639 73.6168C168.639 66.5808 165.916 61.0419 160.472 57V58.3473C159.564 58.0479 158.959 57.8982 158.657 57.8982C155.178 57.8982 150.792 63.8862 145.499 75.8623C141.264 85.4431 137.483 95.5479 134.155 106.177C130.677 116.805 126.139 131.925 120.543 151.536L118.275 159.62C114.796 171.746 112.149 180.428 110.334 185.668C107.309 153.482 105.797 115.458 105.797 71.5958V68.6766C105.948 67.7784 106.024 66.8054 106.024 65.7575C106.024 61.2665 104.209 59.021 100.579 59.021C98.4617 59.021 96.8736 59.8443 95.8149 61.491C94.605 63.1377 94 65.2335 94 67.7784V84.6198C94.3025 107.674 95.2099 132.674 96.7224 159.62C98.2348 186.566 100.05 201.76 102.167 205.204C106.553 206.401 109.276 207 110.334 207Z" fill="white"/>
</svg>
